<mxfile host="app.diagrams.net" agent="Mozilla/5.0 (Windows NT 10.0; Win64; x64) AppleWebKit/537.36 (KHTML, like Gecko) Chrome/135.0.0.0 Safari/537.36" version="26.2.9">
  <diagram name="Page-1" id="6ToY5MNkd4m8JHfbz6ep">
    <mxGraphModel dx="2255" dy="785" grid="1" gridSize="10" guides="1" tooltips="1" connect="1" arrows="1" fold="1" page="1" pageScale="1" pageWidth="827" pageHeight="1169" math="0" shadow="0">
      <root>
        <mxCell id="0" />
        <mxCell id="1" parent="0" />
        <mxCell id="WiSZ6au2gaums9u-8RVg-2" value="receiver" style="shape=umlActor;verticalLabelPosition=bottom;verticalAlign=top;html=1;outlineConnect=0;" vertex="1" parent="1">
          <mxGeometry x="620" y="410" width="70" height="70" as="geometry" />
        </mxCell>
        <mxCell id="WiSZ6au2gaums9u-8RVg-3" value="doner" style="shape=umlActor;verticalLabelPosition=bottom;verticalAlign=top;html=1;outlineConnect=0;" vertex="1" parent="1">
          <mxGeometry x="630" y="230" width="50" height="70" as="geometry" />
        </mxCell>
        <mxCell id="WiSZ6au2gaums9u-8RVg-5" value="" style="swimlane;startSize=0;" vertex="1" parent="1">
          <mxGeometry x="110" y="190" width="320" height="440" as="geometry" />
        </mxCell>
        <mxCell id="WiSZ6au2gaums9u-8RVg-8" value="Add Blood Donor Information" style="ellipse;whiteSpace=wrap;html=1;" vertex="1" parent="WiSZ6au2gaums9u-8RVg-5">
          <mxGeometry x="60" y="20" width="200" height="80" as="geometry" />
        </mxCell>
        <mxCell id="WiSZ6au2gaums9u-8RVg-9" value="Approve Blood Donation" style="ellipse;whiteSpace=wrap;html=1;" vertex="1" parent="WiSZ6au2gaums9u-8RVg-5">
          <mxGeometry x="50" y="120" width="210" height="80" as="geometry" />
        </mxCell>
        <mxCell id="WiSZ6au2gaums9u-8RVg-10" value="Manage Blood Inventory" style="ellipse;whiteSpace=wrap;html=1;" vertex="1" parent="WiSZ6au2gaums9u-8RVg-5">
          <mxGeometry x="70" y="240" width="190" height="80" as="geometry" />
        </mxCell>
        <mxCell id="WiSZ6au2gaums9u-8RVg-27" style="edgeStyle=orthogonalEdgeStyle;rounded=0;orthogonalLoop=1;jettySize=auto;html=1;exitX=0.5;exitY=1;exitDx=0;exitDy=0;" edge="1" parent="WiSZ6au2gaums9u-8RVg-5" source="WiSZ6au2gaums9u-8RVg-10" target="WiSZ6au2gaums9u-8RVg-10">
          <mxGeometry relative="1" as="geometry" />
        </mxCell>
        <mxCell id="WiSZ6au2gaums9u-8RVg-31" value="Assign Blood to Receiver" style="ellipse;whiteSpace=wrap;html=1;" vertex="1" parent="WiSZ6au2gaums9u-8RVg-5">
          <mxGeometry x="80" y="340" width="190" height="80" as="geometry" />
        </mxCell>
        <mxCell id="WiSZ6au2gaums9u-8RVg-41" value="" style="endArrow=none;dashed=1;html=1;dashPattern=1 3;strokeWidth=2;rounded=0;exitX=0.5;exitY=0;exitDx=0;exitDy=0;entryX=0.5;entryY=1;entryDx=0;entryDy=0;" edge="1" parent="WiSZ6au2gaums9u-8RVg-5" source="WiSZ6au2gaums9u-8RVg-9" target="WiSZ6au2gaums9u-8RVg-8">
          <mxGeometry width="50" height="50" relative="1" as="geometry">
            <mxPoint x="120" y="160" as="sourcePoint" />
            <mxPoint x="170" y="110" as="targetPoint" />
          </mxGeometry>
        </mxCell>
        <mxCell id="WiSZ6au2gaums9u-8RVg-47" value="includes" style="rounded=0;whiteSpace=wrap;html=1;" vertex="1" parent="WiSZ6au2gaums9u-8RVg-5">
          <mxGeometry x="190" y="100" width="100" height="20" as="geometry" />
        </mxCell>
        <mxCell id="WiSZ6au2gaums9u-8RVg-49" value="includes" style="rounded=0;whiteSpace=wrap;html=1;" vertex="1" parent="WiSZ6au2gaums9u-8RVg-5">
          <mxGeometry x="210" y="320" width="100" height="20" as="geometry" />
        </mxCell>
        <mxCell id="WiSZ6au2gaums9u-8RVg-48" value="extends" style="rounded=0;whiteSpace=wrap;html=1;" vertex="1" parent="WiSZ6au2gaums9u-8RVg-5">
          <mxGeometry x="190" y="210" width="100" height="20" as="geometry" />
        </mxCell>
        <mxCell id="WiSZ6au2gaums9u-8RVg-55" value="Extends" style="endArrow=block;endSize=16;endFill=0;html=1;rounded=0;exitX=0.5;exitY=1;exitDx=0;exitDy=0;entryX=0.458;entryY=-0.037;entryDx=0;entryDy=0;entryPerimeter=0;" edge="1" parent="WiSZ6au2gaums9u-8RVg-5" source="WiSZ6au2gaums9u-8RVg-9" target="WiSZ6au2gaums9u-8RVg-10">
          <mxGeometry width="160" relative="1" as="geometry">
            <mxPoint x="175" y="250" as="sourcePoint" />
            <mxPoint x="60" y="250" as="targetPoint" />
          </mxGeometry>
        </mxCell>
        <mxCell id="WiSZ6au2gaums9u-8RVg-40" value="" style="endArrow=none;dashed=1;html=1;dashPattern=1 3;strokeWidth=2;rounded=0;exitX=0.432;exitY=0.013;exitDx=0;exitDy=0;exitPerimeter=0;" edge="1" parent="WiSZ6au2gaums9u-8RVg-5" source="WiSZ6au2gaums9u-8RVg-31">
          <mxGeometry width="50" height="50" relative="1" as="geometry">
            <mxPoint x="180" y="330" as="sourcePoint" />
            <mxPoint x="165" y="320" as="targetPoint" />
          </mxGeometry>
        </mxCell>
        <mxCell id="WiSZ6au2gaums9u-8RVg-17" style="edgeStyle=orthogonalEdgeStyle;rounded=0;orthogonalLoop=1;jettySize=auto;html=1;exitX=0.5;exitY=1;exitDx=0;exitDy=0;" edge="1" parent="1">
          <mxGeometry relative="1" as="geometry">
            <mxPoint x="737.5" y="525" as="sourcePoint" />
            <mxPoint x="737.5" y="525" as="targetPoint" />
          </mxGeometry>
        </mxCell>
        <mxCell id="WiSZ6au2gaums9u-8RVg-29" value="Blood Bank Administrator" style="shape=umlActor;verticalLabelPosition=bottom;verticalAlign=top;html=1;outlineConnect=0;" vertex="1" parent="1">
          <mxGeometry x="-190" y="340" width="50" height="90" as="geometry" />
        </mxCell>
        <mxCell id="WiSZ6au2gaums9u-8RVg-30" value="Blood Bank Administration" style="rounded=0;whiteSpace=wrap;html=1;" vertex="1" parent="1">
          <mxGeometry x="165" y="120" width="210" height="60" as="geometry" />
        </mxCell>
        <mxCell id="WiSZ6au2gaums9u-8RVg-33" value="" style="endArrow=none;html=1;rounded=0;entryX=1;entryY=0.5;entryDx=0;entryDy=0;exitX=0.5;exitY=0.5;exitDx=0;exitDy=0;exitPerimeter=0;" edge="1" parent="1" source="WiSZ6au2gaums9u-8RVg-3" target="WiSZ6au2gaums9u-8RVg-8">
          <mxGeometry width="50" height="50" relative="1" as="geometry">
            <mxPoint x="50" y="420" as="sourcePoint" />
            <mxPoint x="100" y="370" as="targetPoint" />
            <Array as="points" />
          </mxGeometry>
        </mxCell>
        <mxCell id="WiSZ6au2gaums9u-8RVg-34" value="" style="endArrow=none;html=1;rounded=0;entryX=1;entryY=0.5;entryDx=0;entryDy=0;" edge="1" parent="1" target="WiSZ6au2gaums9u-8RVg-9">
          <mxGeometry width="50" height="50" relative="1" as="geometry">
            <mxPoint x="650" y="270" as="sourcePoint" />
            <mxPoint x="380" y="270" as="targetPoint" />
            <Array as="points" />
          </mxGeometry>
        </mxCell>
        <mxCell id="WiSZ6au2gaums9u-8RVg-35" value="" style="endArrow=none;html=1;rounded=0;entryX=1;entryY=0.5;entryDx=0;entryDy=0;" edge="1" parent="1" target="WiSZ6au2gaums9u-8RVg-10">
          <mxGeometry width="50" height="50" relative="1" as="geometry">
            <mxPoint x="650" y="285" as="sourcePoint" />
            <mxPoint x="390" y="280" as="targetPoint" />
            <Array as="points" />
          </mxGeometry>
        </mxCell>
        <mxCell id="WiSZ6au2gaums9u-8RVg-36" value="" style="endArrow=none;html=1;rounded=0;entryX=1;entryY=0.5;entryDx=0;entryDy=0;exitX=0.5;exitY=0.5;exitDx=0;exitDy=0;exitPerimeter=0;" edge="1" parent="1" source="WiSZ6au2gaums9u-8RVg-2" target="WiSZ6au2gaums9u-8RVg-31">
          <mxGeometry width="50" height="50" relative="1" as="geometry">
            <mxPoint x="660" y="295" as="sourcePoint" />
            <mxPoint x="400" y="290" as="targetPoint" />
            <Array as="points" />
          </mxGeometry>
        </mxCell>
        <mxCell id="WiSZ6au2gaums9u-8RVg-42" value="" style="endArrow=none;html=1;rounded=0;exitX=0.5;exitY=0.5;exitDx=0;exitDy=0;exitPerimeter=0;entryX=0;entryY=0.5;entryDx=0;entryDy=0;" edge="1" parent="1" source="WiSZ6au2gaums9u-8RVg-29" target="WiSZ6au2gaums9u-8RVg-8">
          <mxGeometry width="50" height="50" relative="1" as="geometry">
            <mxPoint x="50" y="420" as="sourcePoint" />
            <mxPoint x="100" y="370" as="targetPoint" />
          </mxGeometry>
        </mxCell>
        <mxCell id="WiSZ6au2gaums9u-8RVg-43" value="" style="endArrow=none;html=1;rounded=0;entryX=1;entryY=0.5;entryDx=0;entryDy=0;exitX=0;exitY=0.5;exitDx=0;exitDy=0;" edge="1" parent="1" source="WiSZ6au2gaums9u-8RVg-9">
          <mxGeometry width="50" height="50" relative="1" as="geometry">
            <mxPoint x="100" y="387.5" as="sourcePoint" />
            <mxPoint x="-160" y="382.5" as="targetPoint" />
            <Array as="points" />
          </mxGeometry>
        </mxCell>
        <mxCell id="WiSZ6au2gaums9u-8RVg-44" value="" style="endArrow=none;html=1;rounded=0;entryX=0.5;entryY=0.5;entryDx=0;entryDy=0;exitX=0;exitY=0.375;exitDx=0;exitDy=0;exitPerimeter=0;entryPerimeter=0;" edge="1" parent="1" source="WiSZ6au2gaums9u-8RVg-10" target="WiSZ6au2gaums9u-8RVg-29">
          <mxGeometry width="50" height="50" relative="1" as="geometry">
            <mxPoint x="110" y="387.5" as="sourcePoint" />
            <mxPoint x="-150" y="382.5" as="targetPoint" />
            <Array as="points" />
          </mxGeometry>
        </mxCell>
        <mxCell id="WiSZ6au2gaums9u-8RVg-45" value="" style="endArrow=none;html=1;rounded=0;entryX=1;entryY=0.5;entryDx=0;entryDy=0;exitX=0;exitY=0.5;exitDx=0;exitDy=0;" edge="1" parent="1" source="WiSZ6au2gaums9u-8RVg-31">
          <mxGeometry width="50" height="50" relative="1" as="geometry">
            <mxPoint x="100" y="387.5" as="sourcePoint" />
            <mxPoint x="-160" y="382.5" as="targetPoint" />
            <Array as="points" />
          </mxGeometry>
        </mxCell>
        <mxCell id="WiSZ6au2gaums9u-8RVg-77" value="" style="swimlane;startSize=0;" vertex="1" parent="1">
          <mxGeometry x="160" y="850" width="200" height="200" as="geometry" />
        </mxCell>
      </root>
    </mxGraphModel>
  </diagram>
</mxfile>
